<mxfile host="Electron" agent="Mozilla/5.0 (X11; Linux x86_64) AppleWebKit/537.36 (KHTML, like Gecko) draw.io/24.7.17 Chrome/128.0.6613.36 Electron/32.0.1 Safari/537.36" version="24.7.17">
  <diagram name="Page-1" id="li09qqb5fwVE3tS7wrpL">
    <mxGraphModel dx="1368" dy="835" grid="1" gridSize="10" guides="1" tooltips="1" connect="1" arrows="1" fold="1" page="1" pageScale="1" pageWidth="850" pageHeight="1100" math="0" shadow="0">
      <root>
        <mxCell id="0" />
        <mxCell id="1" parent="0" />
        <mxCell id="urL8BZHNpoyfXsBZfCev-18" value="" style="group" parent="1" vertex="1" connectable="0">
          <mxGeometry x="240" y="40" width="370" height="560" as="geometry" />
        </mxCell>
        <mxCell id="urL8BZHNpoyfXsBZfCev-15" value="" style="rounded=1;whiteSpace=wrap;html=1;" parent="urL8BZHNpoyfXsBZfCev-18" vertex="1">
          <mxGeometry width="370" height="560" as="geometry" />
        </mxCell>
        <mxCell id="urL8BZHNpoyfXsBZfCev-17" value="" style="rounded=0;whiteSpace=wrap;html=1;" parent="urL8BZHNpoyfXsBZfCev-18" vertex="1">
          <mxGeometry x="20" y="40" width="330" height="480" as="geometry" />
        </mxCell>
        <mxCell id="urL8BZHNpoyfXsBZfCev-19" value="" style="rounded=1;whiteSpace=wrap;html=1;" parent="urL8BZHNpoyfXsBZfCev-18" vertex="1">
          <mxGeometry x="30" y="200" width="310" height="130" as="geometry" />
        </mxCell>
        <mxCell id="urL8BZHNpoyfXsBZfCev-21" value="Ноябрь" style="rounded=1;whiteSpace=wrap;html=1;" parent="urL8BZHNpoyfXsBZfCev-18" vertex="1">
          <mxGeometry x="200" y="244" width="120" height="60" as="geometry" />
        </mxCell>
        <mxCell id="urL8BZHNpoyfXsBZfCev-22" value="&lt;font style=&quot;font-size: 14px;&quot;&gt;Кэшбэк&lt;/font&gt;" style="text;html=1;align=center;verticalAlign=middle;whiteSpace=wrap;rounded=0;" parent="urL8BZHNpoyfXsBZfCev-18" vertex="1">
          <mxGeometry x="150" y="210" width="60" height="30" as="geometry" />
        </mxCell>
        <mxCell id="_k14NOsf7yQXFgDvM924-61" value="" style="triangle;whiteSpace=wrap;html=1;rotation=-180;" parent="urL8BZHNpoyfXsBZfCev-18" vertex="1">
          <mxGeometry x="300" y="530" width="20" height="20" as="geometry" />
        </mxCell>
        <mxCell id="_k14NOsf7yQXFgDvM924-3" value="&lt;font style=&quot;font-size: 14px;&quot;&gt;Затеменена до 20 числа текущего месяца (текущего месяца) = недоступна&lt;/font&gt;" style="whiteSpace=wrap;html=1;rounded=1;dashed=1;" parent="1" vertex="1">
          <mxGeometry x="650" y="40" width="130" height="98" as="geometry" />
        </mxCell>
        <mxCell id="_k14NOsf7yQXFgDvM924-5" value="" style="group" parent="1" vertex="1" connectable="0">
          <mxGeometry x="192" y="788" width="370" height="560" as="geometry" />
        </mxCell>
        <mxCell id="_k14NOsf7yQXFgDvM924-6" value="" style="rounded=1;whiteSpace=wrap;html=1;" parent="_k14NOsf7yQXFgDvM924-5" vertex="1">
          <mxGeometry width="370" height="560" as="geometry" />
        </mxCell>
        <mxCell id="_k14NOsf7yQXFgDvM924-7" value="" style="rounded=0;whiteSpace=wrap;html=1;" parent="_k14NOsf7yQXFgDvM924-5" vertex="1">
          <mxGeometry x="20" y="40" width="330" height="480" as="geometry" />
        </mxCell>
        <mxCell id="_k14NOsf7yQXFgDvM924-16" value="" style="rounded=1;whiteSpace=wrap;html=1;" parent="_k14NOsf7yQXFgDvM924-5" vertex="1">
          <mxGeometry x="30" y="50" width="310" height="70" as="geometry" />
        </mxCell>
        <mxCell id="_k14NOsf7yQXFgDvM924-17" value="Категория 1" style="rounded=1;whiteSpace=wrap;html=1;" parent="_k14NOsf7yQXFgDvM924-5" vertex="1">
          <mxGeometry x="40" y="55" width="80" height="60" as="geometry" />
        </mxCell>
        <mxCell id="_k14NOsf7yQXFgDvM924-18" value="&lt;font size=&quot;3&quot;&gt;i&lt;/font&gt;" style="ellipse;whiteSpace=wrap;html=1;aspect=fixed;" parent="_k14NOsf7yQXFgDvM924-5" vertex="1">
          <mxGeometry x="300" y="71.25" width="27.5" height="27.5" as="geometry" />
        </mxCell>
        <mxCell id="_k14NOsf7yQXFgDvM924-8" value="" style="rounded=1;whiteSpace=wrap;html=1;" parent="_k14NOsf7yQXFgDvM924-5" vertex="1">
          <mxGeometry x="30" y="129" width="310" height="70" as="geometry" />
        </mxCell>
        <mxCell id="_k14NOsf7yQXFgDvM924-9" value="Категория 2" style="rounded=1;whiteSpace=wrap;html=1;" parent="_k14NOsf7yQXFgDvM924-5" vertex="1">
          <mxGeometry x="40" y="134" width="80" height="60" as="geometry" />
        </mxCell>
        <mxCell id="_k14NOsf7yQXFgDvM924-14" value="&lt;font size=&quot;3&quot;&gt;i&lt;/font&gt;" style="ellipse;whiteSpace=wrap;html=1;aspect=fixed;" parent="_k14NOsf7yQXFgDvM924-5" vertex="1">
          <mxGeometry x="300" y="150.25" width="27.5" height="27.5" as="geometry" />
        </mxCell>
        <mxCell id="_k14NOsf7yQXFgDvM924-59" value="" style="triangle;whiteSpace=wrap;html=1;rotation=-180;" parent="_k14NOsf7yQXFgDvM924-5" vertex="1">
          <mxGeometry x="303.75" y="530" width="20" height="20" as="geometry" />
        </mxCell>
        <mxCell id="_k14NOsf7yQXFgDvM924-21" value="" style="group" parent="1" vertex="1" connectable="0">
          <mxGeometry x="800" y="788" width="370" height="560" as="geometry" />
        </mxCell>
        <mxCell id="_k14NOsf7yQXFgDvM924-22" value="" style="rounded=1;whiteSpace=wrap;html=1;" parent="_k14NOsf7yQXFgDvM924-21" vertex="1">
          <mxGeometry width="370" height="560" as="geometry" />
        </mxCell>
        <mxCell id="_k14NOsf7yQXFgDvM924-23" value="" style="rounded=0;whiteSpace=wrap;html=1;" parent="_k14NOsf7yQXFgDvM924-21" vertex="1">
          <mxGeometry x="20" y="40" width="330" height="480" as="geometry" />
        </mxCell>
        <mxCell id="_k14NOsf7yQXFgDvM924-24" value="" style="rounded=1;whiteSpace=wrap;html=1;" parent="_k14NOsf7yQXFgDvM924-21" vertex="1">
          <mxGeometry x="30" y="50" width="310" height="70" as="geometry" />
        </mxCell>
        <mxCell id="_k14NOsf7yQXFgDvM924-25" value="Категория 1" style="rounded=1;whiteSpace=wrap;html=1;" parent="_k14NOsf7yQXFgDvM924-21" vertex="1">
          <mxGeometry x="40" y="55" width="80" height="60" as="geometry" />
        </mxCell>
        <mxCell id="_k14NOsf7yQXFgDvM924-26" value="" style="ellipse;whiteSpace=wrap;html=1;aspect=fixed;" parent="_k14NOsf7yQXFgDvM924-21" vertex="1">
          <mxGeometry x="300" y="71.25" width="27.5" height="27.5" as="geometry" />
        </mxCell>
        <mxCell id="_k14NOsf7yQXFgDvM924-27" value="" style="rounded=1;whiteSpace=wrap;html=1;" parent="_k14NOsf7yQXFgDvM924-21" vertex="1">
          <mxGeometry x="30" y="129" width="310" height="70" as="geometry" />
        </mxCell>
        <mxCell id="_k14NOsf7yQXFgDvM924-28" value="Категория 2" style="rounded=1;whiteSpace=wrap;html=1;" parent="_k14NOsf7yQXFgDvM924-21" vertex="1">
          <mxGeometry x="40" y="134" width="80" height="60" as="geometry" />
        </mxCell>
        <mxCell id="_k14NOsf7yQXFgDvM924-29" value="" style="ellipse;whiteSpace=wrap;html=1;aspect=fixed;fillColor=#00FF00;" parent="_k14NOsf7yQXFgDvM924-21" vertex="1">
          <mxGeometry x="300" y="150.25" width="27.5" height="27.5" as="geometry" />
        </mxCell>
        <mxCell id="_k14NOsf7yQXFgDvM924-42" value="&lt;font style=&quot;font-size: 12px;&quot;&gt;Сохранить&lt;/font&gt;" style="rounded=1;whiteSpace=wrap;html=1;" parent="_k14NOsf7yQXFgDvM924-21" vertex="1">
          <mxGeometry x="260" y="460" width="80" height="50" as="geometry" />
        </mxCell>
        <mxCell id="_k14NOsf7yQXFgDvM924-43" value="" style="verticalLabelPosition=bottom;verticalAlign=top;html=1;shape=mxgraph.basic.tick" parent="_k14NOsf7yQXFgDvM924-21" vertex="1">
          <mxGeometry x="303.75" y="154" width="20" height="20" as="geometry" />
        </mxCell>
        <mxCell id="_k14NOsf7yQXFgDvM924-58" value="" style="triangle;whiteSpace=wrap;html=1;rotation=-180;" parent="_k14NOsf7yQXFgDvM924-21" vertex="1">
          <mxGeometry x="300" y="530" width="20" height="20" as="geometry" />
        </mxCell>
        <mxCell id="-8ZC4G40E2ZAS9f_rzPk-10" style="edgeStyle=orthogonalEdgeStyle;rounded=0;orthogonalLoop=1;jettySize=auto;html=1;exitX=0.5;exitY=1;exitDx=0;exitDy=0;entryX=0.5;entryY=0;entryDx=0;entryDy=0;strokeColor=#FF0000;" edge="1" parent="1" source="_k14NOsf7yQXFgDvM924-34" target="-8ZC4G40E2ZAS9f_rzPk-7">
          <mxGeometry relative="1" as="geometry" />
        </mxCell>
        <mxCell id="_k14NOsf7yQXFgDvM924-34" value="&lt;font style=&quot;font-size: 14px;&quot;&gt;С 20го и до последнего числа текущего месяца становится доступной&lt;/font&gt;" style="whiteSpace=wrap;html=1;rounded=1;dashed=1;" parent="1" vertex="1">
          <mxGeometry x="639" y="360" width="120" height="100" as="geometry" />
        </mxCell>
        <mxCell id="_k14NOsf7yQXFgDvM924-36" value="&lt;font style=&quot;font-size: 14px;&quot;&gt;С 1го числа следующего месяца займёт место категорий на текущий месяц&lt;/font&gt;" style="whiteSpace=wrap;html=1;rounded=1;dashed=1;" parent="1" vertex="1">
          <mxGeometry x="790" y="220" width="120" height="110" as="geometry" />
        </mxCell>
        <mxCell id="_k14NOsf7yQXFgDvM924-40" value="&lt;font style=&quot;font-size: 14px;&quot;&gt;Путой кружок = невыбранная категория&lt;/font&gt;" style="rounded=1;whiteSpace=wrap;html=1;dashed=1;" parent="1" vertex="1">
          <mxGeometry x="1240" y="843" width="120" height="60" as="geometry" />
        </mxCell>
        <mxCell id="_k14NOsf7yQXFgDvM924-41" value="" style="edgeStyle=orthogonalEdgeStyle;rounded=0;orthogonalLoop=1;jettySize=auto;html=1;strokeColor=#000000;" parent="1" source="_k14NOsf7yQXFgDvM924-26" target="_k14NOsf7yQXFgDvM924-40" edge="1">
          <mxGeometry relative="1" as="geometry" />
        </mxCell>
        <mxCell id="_k14NOsf7yQXFgDvM924-46" value="&lt;font style=&quot;font-size: 14px;&quot;&gt;Выборанная категория - закрасить зелёным область и проставить калочку (белый цвет для тёмной темы и чёрный для белой темы)&lt;/font&gt;" style="rounded=1;whiteSpace=wrap;html=1;fillColor=#FFFFFF;dashed=1;" parent="1" vertex="1">
          <mxGeometry x="1240" y="922" width="120" height="166" as="geometry" />
        </mxCell>
        <mxCell id="_k14NOsf7yQXFgDvM924-47" value="" style="edgeStyle=orthogonalEdgeStyle;rounded=0;orthogonalLoop=1;jettySize=auto;html=1;strokeColor=#000000;" parent="1" source="_k14NOsf7yQXFgDvM924-29" target="_k14NOsf7yQXFgDvM924-46" edge="1">
          <mxGeometry relative="1" as="geometry" />
        </mxCell>
        <mxCell id="_k14NOsf7yQXFgDvM924-48" value="&lt;font style=&quot;font-size: 14px;&quot;&gt;При нажатии переводит на главную страницу раздела &quot;Кэшбэк&quot;&lt;/font&gt;" style="rounded=1;whiteSpace=wrap;html=1;dashed=1;" parent="1" vertex="1">
          <mxGeometry x="1240" y="1108" width="120" height="100" as="geometry" />
        </mxCell>
        <mxCell id="_k14NOsf7yQXFgDvM924-49" value="" style="edgeStyle=orthogonalEdgeStyle;rounded=0;orthogonalLoop=1;jettySize=auto;html=1;strokeColor=#FF0000;" parent="1" source="_k14NOsf7yQXFgDvM924-42" target="_k14NOsf7yQXFgDvM924-48" edge="1">
          <mxGeometry relative="1" as="geometry" />
        </mxCell>
        <mxCell id="_k14NOsf7yQXFgDvM924-51" value="&lt;font size=&quot;3&quot;&gt;1&lt;/font&gt;" style="ellipse;whiteSpace=wrap;html=1;aspect=fixed;" parent="1" vertex="1">
          <mxGeometry x="200" y="39" width="40" height="40" as="geometry" />
        </mxCell>
        <mxCell id="_k14NOsf7yQXFgDvM924-52" value="&lt;font style=&quot;font-size: 14px;&quot;&gt;При наведении на иконку с информацией появляется выпадающее окно со сведениями о категории&lt;/font&gt;" style="rounded=1;whiteSpace=wrap;html=1;dashed=1;" parent="1" vertex="1">
          <mxGeometry x="601" y="1008" width="120" height="140" as="geometry" />
        </mxCell>
        <mxCell id="_k14NOsf7yQXFgDvM924-53" value="" style="edgeStyle=orthogonalEdgeStyle;rounded=0;orthogonalLoop=1;jettySize=auto;html=1;strokeColor=#000000;" parent="1" source="_k14NOsf7yQXFgDvM924-14" target="_k14NOsf7yQXFgDvM924-52" edge="1">
          <mxGeometry relative="1" as="geometry" />
        </mxCell>
        <mxCell id="_k14NOsf7yQXFgDvM924-54" value="&lt;font size=&quot;3&quot;&gt;2&lt;/font&gt;" style="ellipse;whiteSpace=wrap;html=1;aspect=fixed;" parent="1" vertex="1">
          <mxGeometry x="151" y="788" width="40" height="40" as="geometry" />
        </mxCell>
        <mxCell id="_k14NOsf7yQXFgDvM924-55" value="&lt;font size=&quot;3&quot;&gt;3&lt;/font&gt;" style="ellipse;whiteSpace=wrap;html=1;aspect=fixed;" parent="1" vertex="1">
          <mxGeometry x="759" y="788" width="40" height="40" as="geometry" />
        </mxCell>
        <mxCell id="_k14NOsf7yQXFgDvM924-56" style="edgeStyle=orthogonalEdgeStyle;rounded=0;orthogonalLoop=1;jettySize=auto;html=1;exitX=1;exitY=0.5;exitDx=0;exitDy=0;entryX=0.992;entryY=0.854;entryDx=0;entryDy=0;entryPerimeter=0;strokeColor=#FF0000;" parent="1" source="_k14NOsf7yQXFgDvM924-48" target="urL8BZHNpoyfXsBZfCev-15" edge="1">
          <mxGeometry relative="1" as="geometry">
            <Array as="points">
              <mxPoint x="1360" y="1090" />
              <mxPoint x="1380" y="1090" />
              <mxPoint x="1380" y="680" />
              <mxPoint x="700" y="680" />
              <mxPoint x="700" y="518" />
            </Array>
          </mxGeometry>
        </mxCell>
        <mxCell id="_k14NOsf7yQXFgDvM924-62" value="&lt;font style=&quot;font-size: 14px;&quot;&gt;Выход из банка на главную страницу Озон&lt;/font&gt;" style="rounded=1;whiteSpace=wrap;html=1;dashed=1;" parent="1" vertex="1">
          <mxGeometry x="490" y="630" width="120" height="60" as="geometry" />
        </mxCell>
        <mxCell id="_k14NOsf7yQXFgDvM924-63" value="" style="edgeStyle=orthogonalEdgeStyle;rounded=0;orthogonalLoop=1;jettySize=auto;html=1;strokeColor=#FF0000;" parent="1" source="_k14NOsf7yQXFgDvM924-61" target="_k14NOsf7yQXFgDvM924-62" edge="1">
          <mxGeometry relative="1" as="geometry" />
        </mxCell>
        <mxCell id="-8ZC4G40E2ZAS9f_rzPk-1" style="edgeStyle=orthogonalEdgeStyle;rounded=0;orthogonalLoop=1;jettySize=auto;html=1;exitX=1;exitY=0.5;exitDx=0;exitDy=0;strokeColor=#FF0000;" edge="1" parent="1" source="_k14NOsf7yQXFgDvM924-64">
          <mxGeometry relative="1" as="geometry">
            <mxPoint x="1040" y="1428" as="targetPoint" />
          </mxGeometry>
        </mxCell>
        <mxCell id="_k14NOsf7yQXFgDvM924-64" value="&lt;font style=&quot;font-size: 14px;&quot;&gt;На главную страницу раздела &quot;Кэшбэк&quot;&lt;/font&gt;" style="rounded=1;whiteSpace=wrap;html=1;dashed=1;" parent="1" vertex="1">
          <mxGeometry x="445.75" y="1398" width="120" height="60" as="geometry" />
        </mxCell>
        <mxCell id="_k14NOsf7yQXFgDvM924-65" value="" style="edgeStyle=orthogonalEdgeStyle;rounded=0;orthogonalLoop=1;jettySize=auto;html=1;strokeColor=#FF0000;" parent="1" source="_k14NOsf7yQXFgDvM924-59" target="_k14NOsf7yQXFgDvM924-64" edge="1">
          <mxGeometry relative="1" as="geometry" />
        </mxCell>
        <mxCell id="_k14NOsf7yQXFgDvM924-73" style="edgeStyle=orthogonalEdgeStyle;rounded=0;orthogonalLoop=1;jettySize=auto;html=1;exitX=1;exitY=0.5;exitDx=0;exitDy=0;entryX=0.5;entryY=1;entryDx=0;entryDy=0;strokeColor=#FF0000;" parent="1" source="_k14NOsf7yQXFgDvM924-66" target="_k14NOsf7yQXFgDvM924-48" edge="1">
          <mxGeometry relative="1" as="geometry" />
        </mxCell>
        <mxCell id="_k14NOsf7yQXFgDvM924-66" value="&lt;span style=&quot;font-size: 14px;&quot;&gt;На главную страницу раздела &quot;Кэшбэк&quot;&lt;/span&gt;" style="rounded=1;whiteSpace=wrap;html=1;dashed=1;" parent="1" vertex="1">
          <mxGeometry x="1050" y="1398" width="120" height="60" as="geometry" />
        </mxCell>
        <mxCell id="_k14NOsf7yQXFgDvM924-67" value="" style="edgeStyle=orthogonalEdgeStyle;rounded=0;orthogonalLoop=1;jettySize=auto;html=1;strokeColor=#000000;" parent="1" source="_k14NOsf7yQXFgDvM924-58" target="_k14NOsf7yQXFgDvM924-66" edge="1">
          <mxGeometry relative="1" as="geometry" />
        </mxCell>
        <mxCell id="N-lE7uRC2UTWvSIOL3Zv-2" value="&lt;font style=&quot;font-size: 14px;&quot;&gt;1 -&amp;gt; Главная страница раздела &quot;Кэшбэк&quot;&lt;/font&gt;" style="text;html=1;align=center;verticalAlign=middle;whiteSpace=wrap;rounded=0;" parent="1" vertex="1">
          <mxGeometry x="58" y="40" width="130" height="50" as="geometry" />
        </mxCell>
        <mxCell id="N-lE7uRC2UTWvSIOL3Zv-3" value="&lt;span style=&quot;font-size: 14px;&quot;&gt;2 -&amp;gt; Страница с утверждёнными категориями&lt;/span&gt;" style="text;html=1;align=center;verticalAlign=middle;whiteSpace=wrap;rounded=0;" parent="1" vertex="1">
          <mxGeometry x="3" y="778" width="140" height="60" as="geometry" />
        </mxCell>
        <mxCell id="N-lE7uRC2UTWvSIOL3Zv-4" value="&lt;span style=&quot;font-size: 14px;&quot;&gt;3 -&amp;gt; Страница с выбираемыми категориями (утверждаются при нажатии кнопки &quot;Сохранить&quot;)&lt;/span&gt;" style="text;html=1;align=center;verticalAlign=middle;whiteSpace=wrap;rounded=0;" parent="1" vertex="1">
          <mxGeometry x="619" y="778" width="140" height="120" as="geometry" />
        </mxCell>
        <mxCell id="-8ZC4G40E2ZAS9f_rzPk-3" value="&lt;font style=&quot;font-size: 14px;&quot;&gt;Если категории уже утверждены, можно только посмотреть эти категории и сведения по ним&lt;/font&gt;" style="rounded=1;whiteSpace=wrap;html=1;dashed=1;" vertex="1" parent="1">
          <mxGeometry x="50" y="440" width="120" height="100" as="geometry" />
        </mxCell>
        <mxCell id="-8ZC4G40E2ZAS9f_rzPk-4" style="edgeStyle=orthogonalEdgeStyle;rounded=0;orthogonalLoop=1;jettySize=auto;html=1;exitX=0;exitY=0.5;exitDx=0;exitDy=0;entryX=0.5;entryY=0;entryDx=0;entryDy=0;strokeColor=#FF0000;" edge="1" parent="1" source="urL8BZHNpoyfXsBZfCev-21" target="-8ZC4G40E2ZAS9f_rzPk-3">
          <mxGeometry relative="1" as="geometry" />
        </mxCell>
        <mxCell id="-8ZC4G40E2ZAS9f_rzPk-5" style="edgeStyle=orthogonalEdgeStyle;rounded=0;orthogonalLoop=1;jettySize=auto;html=1;exitX=0.5;exitY=1;exitDx=0;exitDy=0;entryX=0.208;entryY=0.005;entryDx=0;entryDy=0;entryPerimeter=0;strokeColor=#FF0000;" edge="1" parent="1" source="-8ZC4G40E2ZAS9f_rzPk-3" target="_k14NOsf7yQXFgDvM924-6">
          <mxGeometry relative="1" as="geometry" />
        </mxCell>
        <mxCell id="-8ZC4G40E2ZAS9f_rzPk-7" value="&lt;font style=&quot;font-size: 14px;&quot;&gt;А значит можно выбирать и утверждать категории&lt;/font&gt;" style="rounded=1;whiteSpace=wrap;html=1;dashed=1;" vertex="1" parent="1">
          <mxGeometry x="840" y="550" width="120" height="100" as="geometry" />
        </mxCell>
        <mxCell id="-8ZC4G40E2ZAS9f_rzPk-11" style="edgeStyle=orthogonalEdgeStyle;rounded=0;orthogonalLoop=1;jettySize=auto;html=1;exitX=0.5;exitY=1;exitDx=0;exitDy=0;entryX=0;entryY=1;entryDx=0;entryDy=0;strokeColor=#FF0000;" edge="1" parent="1" source="urL8BZHNpoyfXsBZfCev-21" target="_k14NOsf7yQXFgDvM924-34">
          <mxGeometry relative="1" as="geometry" />
        </mxCell>
        <mxCell id="-8ZC4G40E2ZAS9f_rzPk-12" style="edgeStyle=orthogonalEdgeStyle;rounded=0;orthogonalLoop=1;jettySize=auto;html=1;exitX=0.5;exitY=0;exitDx=0;exitDy=0;entryX=0.5;entryY=1;entryDx=0;entryDy=0;" edge="1" parent="1" source="urL8BZHNpoyfXsBZfCev-21" target="_k14NOsf7yQXFgDvM924-3">
          <mxGeometry relative="1" as="geometry" />
        </mxCell>
        <mxCell id="-8ZC4G40E2ZAS9f_rzPk-14" style="edgeStyle=orthogonalEdgeStyle;rounded=0;orthogonalLoop=1;jettySize=auto;html=1;exitX=1;exitY=0.5;exitDx=0;exitDy=0;entryX=-0.025;entryY=0.593;entryDx=0;entryDy=0;entryPerimeter=0;" edge="1" parent="1" source="urL8BZHNpoyfXsBZfCev-21" target="_k14NOsf7yQXFgDvM924-36">
          <mxGeometry relative="1" as="geometry" />
        </mxCell>
        <mxCell id="-8ZC4G40E2ZAS9f_rzPk-15" value="" style="group" vertex="1" connectable="0" parent="1">
          <mxGeometry x="1040" y="40" width="370" height="560" as="geometry" />
        </mxCell>
        <mxCell id="-8ZC4G40E2ZAS9f_rzPk-16" value="" style="rounded=1;whiteSpace=wrap;html=1;" vertex="1" parent="-8ZC4G40E2ZAS9f_rzPk-15">
          <mxGeometry width="370" height="560" as="geometry" />
        </mxCell>
        <mxCell id="-8ZC4G40E2ZAS9f_rzPk-17" value="" style="rounded=0;whiteSpace=wrap;html=1;" vertex="1" parent="-8ZC4G40E2ZAS9f_rzPk-15">
          <mxGeometry x="20" y="40" width="330" height="480" as="geometry" />
        </mxCell>
        <mxCell id="-8ZC4G40E2ZAS9f_rzPk-18" value="" style="rounded=1;whiteSpace=wrap;html=1;" vertex="1" parent="-8ZC4G40E2ZAS9f_rzPk-15">
          <mxGeometry x="30" y="200" width="310" height="130" as="geometry" />
        </mxCell>
        <mxCell id="-8ZC4G40E2ZAS9f_rzPk-19" value="Декабрь" style="rounded=1;whiteSpace=wrap;html=1;" vertex="1" parent="-8ZC4G40E2ZAS9f_rzPk-15">
          <mxGeometry x="200" y="244" width="120" height="60" as="geometry" />
        </mxCell>
        <mxCell id="-8ZC4G40E2ZAS9f_rzPk-20" value="&lt;font style=&quot;font-size: 14px;&quot;&gt;Кэшбэк&lt;/font&gt;" style="text;html=1;align=center;verticalAlign=middle;whiteSpace=wrap;rounded=0;" vertex="1" parent="-8ZC4G40E2ZAS9f_rzPk-15">
          <mxGeometry x="150" y="210" width="60" height="30" as="geometry" />
        </mxCell>
        <mxCell id="-8ZC4G40E2ZAS9f_rzPk-21" value="" style="triangle;whiteSpace=wrap;html=1;rotation=-180;" vertex="1" parent="-8ZC4G40E2ZAS9f_rzPk-15">
          <mxGeometry x="300" y="530" width="20" height="20" as="geometry" />
        </mxCell>
        <mxCell id="-8ZC4G40E2ZAS9f_rzPk-22" value="Ноябрь" style="rounded=1;whiteSpace=wrap;html=1;" vertex="1" parent="-8ZC4G40E2ZAS9f_rzPk-15">
          <mxGeometry x="50" y="244" width="120" height="60" as="geometry" />
        </mxCell>
        <mxCell id="-8ZC4G40E2ZAS9f_rzPk-23" value="&lt;font size=&quot;3&quot;&gt;4&lt;/font&gt;" style="ellipse;whiteSpace=wrap;html=1;aspect=fixed;" vertex="1" parent="1">
          <mxGeometry x="999" y="39" width="40" height="40" as="geometry" />
        </mxCell>
        <mxCell id="-8ZC4G40E2ZAS9f_rzPk-24" value="&lt;font style=&quot;font-size: 14px;&quot;&gt;4 -&amp;gt; Главная страница раздела &quot;Кэшбэк&quot; с первого числа следубщего месяца&lt;/font&gt;" style="text;html=1;align=center;verticalAlign=middle;whiteSpace=wrap;rounded=0;" vertex="1" parent="1">
          <mxGeometry x="848" y="35" width="130" height="50" as="geometry" />
        </mxCell>
        <mxCell id="-8ZC4G40E2ZAS9f_rzPk-30" style="edgeStyle=orthogonalEdgeStyle;rounded=0;orthogonalLoop=1;jettySize=auto;html=1;exitX=0.5;exitY=1;exitDx=0;exitDy=0;entryX=0.273;entryY=0;entryDx=0;entryDy=0;entryPerimeter=0;strokeColor=#FF0000;" edge="1" parent="1" source="-8ZC4G40E2ZAS9f_rzPk-7" target="_k14NOsf7yQXFgDvM924-22">
          <mxGeometry relative="1" as="geometry" />
        </mxCell>
        <mxCell id="-8ZC4G40E2ZAS9f_rzPk-31" style="edgeStyle=orthogonalEdgeStyle;rounded=0;orthogonalLoop=1;jettySize=auto;html=1;exitX=1;exitY=0.5;exitDx=0;exitDy=0;entryX=0;entryY=0.5;entryDx=0;entryDy=0;" edge="1" parent="1" source="_k14NOsf7yQXFgDvM924-36" target="-8ZC4G40E2ZAS9f_rzPk-22">
          <mxGeometry relative="1" as="geometry" />
        </mxCell>
        <mxCell id="-8ZC4G40E2ZAS9f_rzPk-34" value="&lt;font style=&quot;font-size: 14px;&quot;&gt;Выход из банка на главную страницу Озон&lt;/font&gt;" style="rounded=1;whiteSpace=wrap;html=1;dashed=1;" vertex="1" parent="1">
          <mxGeometry x="1440" y="615" width="120" height="60" as="geometry" />
        </mxCell>
        <mxCell id="-8ZC4G40E2ZAS9f_rzPk-36" style="edgeStyle=orthogonalEdgeStyle;rounded=0;orthogonalLoop=1;jettySize=auto;html=1;exitX=0;exitY=0.5;exitDx=0;exitDy=0;entryX=0.5;entryY=0;entryDx=0;entryDy=0;strokeColor=#FF0000;" edge="1" parent="1" source="-8ZC4G40E2ZAS9f_rzPk-21" target="-8ZC4G40E2ZAS9f_rzPk-34">
          <mxGeometry relative="1" as="geometry" />
        </mxCell>
      </root>
    </mxGraphModel>
  </diagram>
</mxfile>
